<svg width="24" height="26" viewBox="0 0 24 26" fill="none" xmlns="http://www.w3.org/2000/svg">
<path d="M12 22.1057L16.95 17.0999C17.9289 16.1098 18.5955 14.8485 18.8656 13.4753C19.1356 12.1022 18.9969 10.6789 18.4671 9.38539C17.9373 8.09192 17.04 6.98639 15.8889 6.20857C14.7378 5.43076 13.3844 5.0156 12 5.0156C10.6156 5.0156 9.26222 5.43076 8.11109 6.20857C6.95996 6.98639 6.06275 8.09192 5.53292 9.38539C5.00308 10.6789 4.86442 12.1022 5.13445 13.4753C5.40449 14.8485 6.07111 16.1098 7.05 17.0999L12 22.1057ZM12 24.9656L5.636 18.5298C4.37734 17.2569 3.52019 15.6352 3.17293 13.8697C2.82567 12.1042 3.00391 10.2742 3.6851 8.6111C4.36629 6.94802 5.51984 5.52657 6.99988 4.52649C8.47992 3.52641 10.22 2.99261 12 2.99261C13.78 2.99261 15.5201 3.52641 17.0001 4.52649C18.4802 5.52657 19.6337 6.94802 20.3149 8.6111C20.9961 10.2742 21.1743 12.1042 20.8271 13.8697C20.4798 15.6352 19.6227 17.2569 18.364 18.5298L12 24.9656V24.9656ZM12 14.1166C12.5304 14.1166 13.0391 13.9035 13.4142 13.5242C13.7893 13.1449 14 12.6305 14 12.094C14 11.5576 13.7893 11.0432 13.4142 10.6639C13.0391 10.2846 12.5304 10.0715 12 10.0715C11.4696 10.0715 10.9609 10.2846 10.5858 10.6639C10.2107 11.0432 10 11.5576 10 12.094C10 12.6305 10.2107 13.1449 10.5858 13.5242C10.9609 13.9035 11.4696 14.1166 12 14.1166ZM12 16.1392C10.9391 16.1392 9.92172 15.713 9.17158 14.9544C8.42143 14.1958 8 13.1669 8 12.094C8 11.0212 8.42143 9.99232 9.17158 9.23372C9.92172 8.47511 10.9391 8.04893 12 8.04893C13.0609 8.04893 14.0783 8.47511 14.8284 9.23372C15.5786 9.99232 16 11.0212 16 12.094C16 13.1669 15.5786 14.1958 14.8284 14.9544C14.0783 15.713 13.0609 16.1392 12 16.1392Z" fill="#5243C2"/>
</svg>
