<svg width="36" height="35" viewBox="0 0 36 35" fill="none" xmlns="http://www.w3.org/2000/svg">
<path d="M35.9283 13.103C35.7651 12.5845 35.3082 12.2007 34.7661 12.1219L24.1644 10.5815L19.4193 0.972447C18.9338 -0.00937039 17.3204 -0.00937039 16.8291 0.972447L12.0897 10.5815L1.48811 12.1219C0.946709 12.2007 0.489816 12.5788 0.320093 13.103C0.151086 13.6279 0.292164 14.2037 0.686753 14.5818L8.36011 22.0633L6.54901 32.6198C6.45878 33.1619 6.67935 33.7147 7.12478 34.0363C7.57022 34.3578 8.15745 34.4029 8.64227 34.143L18.1274 29.1608L27.6062 34.143C27.8203 34.2561 28.0516 34.307 28.2829 34.307C28.5823 34.307 28.8759 34.2167 29.1294 34.0363C29.5755 33.709 29.7954 33.1619 29.7052 32.6198L27.8941 22.0633L35.5674 14.5818C35.962 14.198 36.0981 13.6279 35.9283 13.103Z" fill="#EFF0F7"/>
</svg>
