<svg width="42" height="41" viewBox="0 0 42 41" fill="none" xmlns="http://www.w3.org/2000/svg">
<path d="M23.706 3.31615L23.7056 3.31539C23.1536 2.19913 22.0257 1.75384 21.084 1.75384C20.1421 1.75384 19.0168 2.19873 18.4612 3.30918L18.4612 3.30917L18.4574 3.31679L14.0628 12.2268L4.23262 13.6551L4.23232 13.6551C3.14252 13.8137 2.21442 14.5751 1.86756 15.6464L1.86682 15.6487C1.52853 16.6995 1.80447 17.8676 2.61348 18.6469L9.7251 25.5806L8.04574 35.3691L8.04453 35.3764C7.86414 36.4602 8.30144 37.5787 9.21487 38.2381C10.1076 38.8826 11.2995 38.9827 12.2938 38.4528C12.296 38.4516 12.2982 38.4505 12.3003 38.4493L21.0849 33.8352L29.8713 38.4535C29.8721 38.4539 29.8729 38.4543 29.8737 38.4548C30.3194 38.6898 30.791 38.7892 31.2406 38.7892C31.8423 38.7892 32.4375 38.6062 32.9466 38.2438L32.9552 38.2377L32.9637 38.2314C33.8636 37.5714 34.3064 36.4666 34.1249 35.3764L34.1237 35.3691L32.4443 25.5806L39.5586 18.6443C40.3648 17.86 40.6349 16.7007 40.298 15.6522C39.9591 14.5837 39.0295 13.8139 37.9368 13.6551L37.7237 15.1219L37.9368 13.6551L28.1062 12.2267L23.706 3.31615Z" fill="#FFD029" stroke="white" stroke-width="2.96448"/>
</svg>
